<svg width="256" height="256" viewBox="0 0 256 256" fill="none" xmlns="http://www.w3.org/2000/svg">
<g clip-path="url(#clip0_75_108)">
<path d="M108.722 198.756C108.722 230.375 85.1156 256 56 256V198.756H108.722Z" fill="white" stroke="white" stroke-miterlimit="10"/>
<path d="M200.992 142.806C200.992 166.333 177.386 185.412 148.27 185.412H56C56 161.885 79.6066 142.806 108.722 142.806H200.992Z" fill="white" stroke="white" stroke-miterlimit="10"/>
<path d="M186.497 25.9539C195.303 20.0372 201 10.6095 201 0H128.5C115.294 0 102.916 3.16119 92.25 8.68627C81.2476 14.3792 72.066 22.5969 65.7052 32.4441C59.5398 41.9906 56 53.0687 56 64.8882C56 76.7077 59.532 87.7858 65.7052 97.3323C72.066 107.18 81.2476 115.397 92.25 121.09C102.916 126.608 115.294 129.776 128.5 129.776C141.706 129.776 154.084 126.615 164.75 121.09C175.752 115.397 184.934 107.18 191.295 97.3323C197.46 87.7858 201 76.7077 201 64.8882C201 53.0687 197.468 41.9906 191.295 32.4441C189.841 30.1851 188.239 28.0171 186.497 25.9539ZM128.5 97.3253C108.48 97.3253 92.25 82.7992 92.25 64.8812C92.25 46.9632 108.48 32.4371 128.5 32.4371C148.52 32.4371 164.75 46.9632 164.75 64.8812C164.75 82.7992 148.52 97.3253 128.5 97.3253Z" fill="white" stroke="white" stroke-width="0.5" stroke-miterlimit="10"/>
</g>
<defs>
<clipPath id="clip0_75_108">
<rect width="256" height="256" fill="white"/>
</clipPath>
</defs>
</svg>
